<svg width="32" height="32" viewBox="0 0 32 32" fill="none" xmlns="http://www.w3.org/2000/svg">
<path d="M24 7.99999H21.3333C21.3333 5.05332 18.9467 2.66666 16 2.66666C13.0533 2.66666 10.6667 5.05332 10.6667 7.99999H8.00001C6.53334 7.99999 5.33334 9.19999 5.33334 10.6667V26.6667C5.33334 28.1333 6.53334 29.3333 8.00001 29.3333H24C25.4667 29.3333 26.6667 28.1333 26.6667 26.6667V10.6667C26.6667 9.19999 25.4667 7.99999 24 7.99999ZM13.3333 13.3333C13.3333 14.0667 12.7333 14.6667 12 14.6667C11.2667 14.6667 10.6667 14.0667 10.6667 13.3333V10.6667H13.3333V13.3333ZM16 5.33332C17.4667 5.33332 18.6667 6.53332 18.6667 7.99999H13.3333C13.3333 6.53332 14.5333 5.33332 16 5.33332ZM21.3333 13.3333C21.3333 14.0667 20.7333 14.6667 20 14.6667C19.2667 14.6667 18.6667 14.0667 18.6667 13.3333V10.6667H21.3333V13.3333Z" fill="black"/>
</svg>
